<?xml version="1.0" encoding="UTF-8" standalone="no"?>
<svg
   version="1.2"
   width="512"
   height="512"
   viewBox="0 0 13546.667 13546.666"
   preserveAspectRatio="xMidYMid"
   fill-rule="evenodd"
   stroke-width="28.222"
   stroke-linejoin="round"
   xml:space="preserve"
   id="svg27"
   sodipodi:docname="HEXALLogoX.svg"
   inkscape:version="1.4.2 (f4327f4, 2025-05-13)"
   xmlns:inkscape="http://www.inkscape.org/namespaces/inkscape"
   xmlns:sodipodi="http://sodipodi.sourceforge.net/DTD/sodipodi-0.dtd"
   xmlns="http://www.w3.org/2000/svg"
   xmlns:svg="http://www.w3.org/2000/svg"
   xmlns:ooo="http://xml.openoffice.org/svg/export"><sodipodi:namedview
   id="namedview27"
   pagecolor="#ffffff"
   bordercolor="#000000"
   borderopacity="0.25"
   inkscape:showpageshadow="2"
   inkscape:pageopacity="0.0"
   inkscape:pagecheckerboard="0"
   inkscape:deskcolor="#d1d1d1"
   inkscape:document-units="mm"
   inkscape:zoom="0.8186411"
   inkscape:cx="629.09131"
   inkscape:cy="215.6012"
   inkscape:window-width="1920"
   inkscape:window-height="1017"
   inkscape:window-x="-8"
   inkscape:window-y="-8"
   inkscape:window-maximized="1"
   inkscape:current-layer="svg27" />
 <defs
   class="ClipPathGroup"
   id="defs2">
  <clipPath
   id="presentation_clip_path"
   clipPathUnits="userSpaceOnUse">
   <rect
   x="0"
   y="0"
   width="28700"
   height="4800"
   id="rect1" />
  </clipPath>
  <clipPath
   id="presentation_clip_path_shrink"
   clipPathUnits="userSpaceOnUse">
   <rect
   x="28"
   y="4"
   width="28643"
   height="4791"
   id="rect2" />
  </clipPath>
 </defs>
 <defs
   class="TextShapeIndex"
   id="defs3">
  <g
   ooo:slide="id1"
   ooo:id-list="id3 id4 id5 id6 id7 id8 id9 id10 id11 id12 id13"
   id="g2" />
 </defs>
 <defs
   class="EmbeddedBulletChars"
   id="defs12">
  <g
   id="bullet-char-template-57356"
   transform="matrix(4.8828125e-4,0,0,-4.8828125e-4,0,0)">
   <path
   d="M 580,1141 1163,571 580,0 -4,571 Z"
   id="path3" />
  </g>
  <g
   id="bullet-char-template-57354"
   transform="matrix(4.8828125e-4,0,0,-4.8828125e-4,0,0)">
   <path
   d="M 8,1128 H 1137 V 0 H 8 Z"
   id="path4" />
  </g>
  <g
   id="bullet-char-template-10146"
   transform="matrix(4.8828125e-4,0,0,-4.8828125e-4,0,0)">
   <path
   d="M 174,0 602,739 174,1481 1456,739 Z M 1358,739 309,1346 659,739 Z"
   id="path5" />
  </g>
  <g
   id="bullet-char-template-10132"
   transform="matrix(4.8828125e-4,0,0,-4.8828125e-4,0,0)">
   <path
   d="M 2015,739 1276,0 H 717 l 543,543 H 174 v 393 h 1086 l -543,545 h 557 z"
   id="path6" />
  </g>
  <g
   id="bullet-char-template-10007"
   transform="matrix(4.8828125e-4,0,0,-4.8828125e-4,0,0)">
   <path
   d="m 0,-2 c -7,16 -16,29 -25,39 l 381,530 c -94,256 -141,385 -141,387 0,25 13,38 40,38 9,0 21,-2 34,-5 21,4 42,12 65,25 l 27,-13 111,-251 280,301 64,-25 24,25 c 21,-10 41,-24 62,-43 C 886,937 835,863 770,784 769,783 710,716 594,584 L 774,223 c 0,-27 -21,-55 -63,-84 l 16,-20 C 717,90 699,76 672,76 641,76 570,178 457,381 L 164,-76 c -22,-34 -53,-51 -92,-51 -42,0 -63,17 -64,51 -7,9 -10,24 -10,44 0,9 1,19 2,30 z"
   id="path7" />
  </g>
  <g
   id="bullet-char-template-10004"
   transform="matrix(4.8828125e-4,0,0,-4.8828125e-4,0,0)">
   <path
   d="M 285,-33 C 182,-33 111,30 74,156 52,228 41,333 41,471 c 0,78 14,145 41,201 34,71 87,106 158,106 53,0 88,-31 106,-94 l 23,-176 c 8,-64 28,-97 59,-98 l 735,706 c 11,11 33,17 66,17 42,0 63,-15 63,-46 V 965 c 0,-36 -10,-64 -30,-84 L 442,47 C 390,-6 338,-33 285,-33 Z"
   id="path8" />
  </g>
  <g
   id="bullet-char-template-9679"
   transform="matrix(4.8828125e-4,0,0,-4.8828125e-4,0,0)">
   <path
   d="M 813,0 C 632,0 489,54 383,161 276,268 223,411 223,592 c 0,181 53,324 160,431 106,107 249,161 430,161 179,0 323,-54 432,-161 108,-107 162,-251 162,-431 0,-180 -54,-324 -162,-431 C 1136,54 992,0 813,0 Z"
   id="path9" />
  </g>
  <g
   id="bullet-char-template-8226"
   transform="matrix(4.8828125e-4,0,0,-4.8828125e-4,0,0)">
   <path
   d="m 346,457 c -73,0 -137,26 -191,78 -54,51 -81,114 -81,188 0,73 27,136 81,188 54,52 118,78 191,78 73,0 134,-26 185,-79 51,-51 77,-114 77,-187 0,-75 -25,-137 -76,-188 -50,-52 -112,-78 -186,-78 z"
   id="path10" />
  </g>
  <g
   id="bullet-char-template-8211"
   transform="matrix(4.8828125e-4,0,0,-4.8828125e-4,0,0)">
   <path
   d="M -4,459 H 1135 V 606 H -4 Z"
   id="path11" />
  </g>
  <g
   id="bullet-char-template-61548"
   transform="matrix(4.8828125e-4,0,0,-4.8828125e-4,0,0)">
   <path
   d="m 173,740 c 0,163 58,303 173,419 116,115 255,173 419,173 163,0 302,-58 418,-173 116,-116 174,-256 174,-419 0,-163 -58,-303 -174,-418 C 1067,206 928,148 765,148 601,148 462,206 346,322 231,437 173,577 173,740 Z"
   id="path12" />
  </g>
 </defs>
 <g
   id="g12"
   transform="translate(-106,-79)">
  <g
   id="id2"
   class="Master_Slide">
   <g
   id="bg-id2"
   class="Background" />
   <g
   id="bo-id2"
   class="BackgroundObjects" />
  </g>
 </g>
 <g
   class="SlideGroup"
   id="g27"
   transform="matrix(1.6140188,0,0,1.6140188,-17171.311,2784.2181)">
  <g
   id="g26">
   <g
   id="container-id1">
    <g
   id="id1"
   class="Slide"
   clip-path="url(#presentation_clip_path)">
     <g
   class="Page"
   id="g25">
      <g
   class="com.sun.star.drawing.ClosedBezierShape"
   id="g13">
       <g
   id="id3">
        <rect
   class="BoundingBox"
   stroke="none"
   fill="none"
   x="6383"
   y="1684"
   width="3341"
   height="1291"
   id="rect12" />
        <path
   fill="#ff0000"
   stroke="none"
   d="m 6383,2487 c 0,294 329,487 633,487 h 2707 v -508 c 0,-48 -15,-63 -63,-63 H 6911 v -211 h 2812 c 0,-16 0,-32 0,-47 v 0 -401 c -9,-39 -28,-60 -63,-60 H 6383 Z"
   id="path13" />
       </g>
      </g>
      <g
   class="com.sun.star.drawing.PolyPolygonShape"
   id="g14">
       <g
   id="id4">
        <rect
   class="BoundingBox"
   stroke="none"
   fill="none"
   x="106"
   y="901"
   width="3342"
   height="2052"
   id="rect13" />
        <path
   fill="#ff0000"
   stroke="none"
   d="m 106,2952 h 528 v -762 h 2263 v 762 h 549 V 901 h -549 v 782 H 634 V 901 H 106 Z"
   id="path14" />
       </g>
      </g>
      <g
   class="com.sun.star.drawing.ClosedBezierShape"
   id="g15">
       <g
   id="id5">
        <rect
   class="BoundingBox"
   stroke="none"
   fill="none"
   x="25292"
   y="880"
   width="3341"
   height="2052"
   id="rect14" />
        <path
   fill="#fe0000"
   stroke="none"
   d="m 25292,2445 c 0,293 329,486 633,486 h 2707 v -20 -494 c -7,-33 -22,-50 -48,-57 h -462 v 0 h -1815 c -261,0 -487,-66 -487,-317 V 880 h -528 z"
   id="path15" />
       </g>
      </g>
      <g
   class="com.sun.star.drawing.ClosedBezierShape"
   id="g16">
       <g
   id="id6">
        <rect
   class="BoundingBox"
   stroke="none"
   fill="none"
   x="6383"
   y="924"
   width="3342"
   height="552"
   id="rect15" />
        <path
   fill="#ff0000"
   stroke="none"
   d="m 6383,1410 v 64 H 9723 V 924 H 7016 c -294,0 -633,197 -633,486 z"
   id="path16" />
       </g>
      </g>
      <g
   class="Group"
   id="g20">
       <g
   class="com.sun.star.drawing.PolyPolygonShape"
   id="g17">
        <g
   id="id7">
         <rect
   class="BoundingBox"
   stroke="none"
   fill="none"
   x="10753"
   y="79"
   width="8231"
   height="4628"
   id="rect16" />
         <path
   fill="#ff0000"
   stroke="none"
   d="m 11409,4705 6855,-11 719,-3022 L 16675,79 h -3556 l -2366,1574 z m 0,0 z m -278,-3054 700,2662 h 6016 L 18613,1683 16558,214 h -3331 z"
   id="path17" />
        </g>
       </g>
       <g
   class="com.sun.star.drawing.PolyPolygonShape"
   id="g18">
        <g
   id="id8">
         <rect
   class="BoundingBox"
   stroke="none"
   fill="none"
   x="12204"
   y="756"
   width="5218"
   height="2687"
   id="rect17" />
         <path
   fill="#ff0000"
   stroke="none"
   d="m 12204,3441 1609,-1582 -186,-276 h 1817 l 698,-827 h 682 l -861,1103 1458,1582 h -933 L 15439,2218 h -1146 l -1146,1223 h -900 z"
   id="path18" />
        </g>
       </g>
       <g
   class="com.sun.star.drawing.PolyPolygonShape"
   id="g19">
        <g
   id="id9">
         <rect
   class="BoundingBox"
   stroke="none"
   fill="none"
   x="13068"
   y="756"
   width="1094"
   height="562"
   id="rect18" />
         <path
   fill="#ff0000"
   stroke="none"
   d="m 13068,756 377,560 h 716 l -435,-560 z"
   id="path19" />
        </g>
       </g>
      </g>
      <g
   class="com.sun.star.drawing.PolyPolygonShape"
   id="g21">
       <g
   id="id10">
        <rect
   class="BoundingBox"
   stroke="none"
   fill="none"
   x="19545"
   y="880"
   width="3340"
   height="2052"
   id="rect20" />
        <path
   fill="#ff0000"
   stroke="none"
   d="m 20087,2931 h -542 l 855,-1261 h 1027 l -191,-247 h -675 l 371,-543 h 547 l 1404,2051 h -550 l -588,-790 h -1067 z"
   id="path20" />
       </g>
      </g>
      <g
   class="com.sun.star.drawing.PolyPolygonShape"
   id="g22">
       <g
   id="id11">
        <rect
   class="BoundingBox"
   stroke="none"
   fill="none"
   x="28261"
   y="2360"
   width="374"
   height="184"
   id="rect21" />
        <path
   fill="#fe0000"
   stroke="none"
   d="m 28261,2543 v -183 h 372 v 183 z"
   id="path21" />
       </g>
      </g>
      <g
   class="com.sun.star.drawing.PolyPolygonShape"
   id="g23">
       <g
   id="id12">
        <rect
   class="BoundingBox"
   stroke="none"
   fill="none"
   x="9323"
   y="1684"
   width="401"
   height="315"
   id="rect22" />
        <path
   fill="#ff0000"
   stroke="none"
   d="m 9323,1997 v -313 h 400 v 313 z"
   id="path22" />
       </g>
      </g>
      <g
   class="com.sun.star.drawing.PolyPolygonShape"
   id="g24">
       <g
   id="id13">
        <rect
   class="BoundingBox"
   stroke="none"
   fill="none"
   x="9458"
   y="2402"
   width="264"
   height="198"
   id="rect23" />
        <path
   fill="#ff0000"
   stroke="none"
   d="m 9458,2598 v -196 h 263 v 196 z"
   id="path23" />
       </g>
      </g>
     </g>
    </g>
   </g>
  </g>
 </g>
</svg>
